<?xml version="1.0" encoding="UTF-8"?>
<svg version="1.1" xmlns="http://www.w3.org/2000/svg" width="512" height="512">
<path d="M0 0 C1.00256836 0.00757324 2.00513672 0.01514648 3.03808594 0.02294922 C20.51501783 0.4090085 35.10313942 7.33787034 47.6875 19.4375 C61.29037059 34.53989963 65.67663013 51.51564549 64.83105469 71.27783203 C63.73455478 87.77381534 55.14729753 103.14238342 42.83203125 113.94140625 C36.51707111 118.90024299 30.11615464 122.45733694 22.6875 125.4375 C20.35049817 126.42910244 18.01928513 127.43365646 15.6875 128.4375 C16.8734375 128.65664063 18.059375 128.87578125 19.28125 129.1015625 C41.48110332 133.37351681 60.61999714 141.29009121 77.6875 156.4375 C78.8940625 157.41203125 78.8940625 157.41203125 80.125 158.40625 C101.37227244 176.11231036 113.83694895 203.48364262 117.6875 230.4375 C117.6875 253.2075 117.6875 275.9775 117.6875 299.4375 C40.1375 299.4375 -37.4125 299.4375 -117.3125 299.4375 C-117.3125 223.57436878 -117.3125 223.57436878 -111.6875 207.4375 C-111.43516602 206.70313721 -111.18283203 205.96877441 -110.92285156 205.2121582 C-100.0380065 174.90996618 -77.31496178 151.50160047 -48.43701172 137.85473633 C-37.85038567 133.09888345 -26.76699913 130.19833426 -15.3125 128.4375 C-16.06273437 128.14617187 -16.81296875 127.85484375 -17.5859375 127.5546875 C-29.25740605 122.88022025 -38.30981149 117.25197899 -47.3125 108.4375 C-47.86679688 107.91929687 -48.42109375 107.40109375 -48.9921875 106.8671875 C-59.64794173 95.86584124 -64.2574942 79.2892388 -64.6875 64.4375 C-64.15767562 46.13818087 -57.57036447 30.10664935 -44.3125 17.4375 C-43.70019531 16.80585938 -43.08789062 16.17421875 -42.45703125 15.5234375 C-31.19345479 4.62010336 -15.36490895 -0.16423299 0 0 Z " fill="#000000" transform="translate(170.3125,127.5625)"/>
<path d="M0 0 C1.5159375 1.0828125 1.5159375 1.0828125 3.0625 2.1875 C16.06276261 13.4936774 22.83983992 30.4647991 24.28125 47.28125 C24.85015206 66.8135541 17.70826906 83.19105521 4.7578125 97.47265625 C-3.65520123 105.72987343 -14.64893744 111.07021861 -26 114 C-25.35675781 114.1451001 -24.71351563 114.2902002 -24.05078125 114.43969727 C-10.7814844 117.47663423 1.90405522 120.65156744 14 127 C14.62132812 127.32307129 15.24265625 127.64614258 15.8828125 127.97900391 C42.92024054 142.35306866 63.07472641 167.32502943 72.1652832 196.52050781 C72.37886475 197.23561523 72.59244629 197.95072266 72.8125 198.6875 C73.00739014 199.33944336 73.20228027 199.99138672 73.40307617 200.66308594 C81.19172556 228.4125093 77 257.44932813 77 286 C27.5 286 -22 286 -73 286 C-73.99 277.09 -74.98 268.18 -76 259 C-84.52616371 221.20835546 -104.3611839 190.34834951 -137 169 C-129.58750338 148.48719993 -107.01793281 132.86036754 -88.04199219 123.89501953 C-77.4953346 119.27234537 -66.26361107 116.26864251 -55 114 C-55.73863281 113.78085938 -56.47726562 113.56171875 -57.23828125 113.3359375 C-75.49832803 107.62822275 -89.67143503 96.97241925 -98.61328125 79.91015625 C-106.19326894 64.00285814 -107.536151 46.37445861 -102.3125 29.48828125 C-96.04388326 12.82793974 -85.00085069 -0.1348928 -69 -8 C-45.48521816 -18.1026901 -20.34808789 -15.48301277 0 0 Z " fill="#000000" transform="translate(382,88)"/>
</svg>
