<?xml version="1.0" encoding="UTF-8"?>
<svg version="1.1" xmlns="http://www.w3.org/2000/svg" width="512" height="512">
<path d="M0 0 C17.28697776 15.68670327 30.13877263 37.8334729 31.53930664 61.55175781 C32.07946213 89.32564901 32.07946213 89.32564901 27.36230469 102.55419922 C27.14799805 103.18567871 26.93369141 103.8171582 26.71289062 104.46777344 C23.54876323 113.69993263 19.27592567 121.74821953 13.36230469 129.55419922 C12.96414551 130.08255371 12.56598633 130.6109082 12.15576172 131.15527344 C3.82740061 142.043224 -6.22507993 150.07815918 -17.63769531 157.55419922 C-15.94966797 157.88291016 -15.94966797 157.88291016 -14.22753906 158.21826172 C6.01559881 162.3267868 22.44884929 170.20554982 38.36230469 183.55419922 C39.37292969 184.31732422 40.38355469 185.08044922 41.42480469 185.86669922 C59.69038442 202.57776153 72.11499855 227.92975943 74.36230469 252.55419922 C74.52279012 257.19856461 74.52979388 261.84145617 74.53930664 266.48828125 C74.54557998 267.89990401 74.55222753 269.31152515 74.55921936 270.72314453 C74.5801404 275.33608882 74.59060331 279.94903302 74.60058594 284.56201172 C74.60463651 286.15396008 74.60875352 287.74590827 74.61293602 289.33785629 C74.63195312 296.81134124 74.64619727 304.28481647 74.65454799 311.75832093 C74.66433928 320.37715332 74.69072236 328.9957302 74.73104888 337.61447251 C74.76119028 344.28555174 74.77601455 350.95655754 74.779329 357.62770355 C74.78167963 361.60901576 74.79064326 365.59005385 74.81579018 369.57129288 C74.83904482 373.31263138 74.843315 377.05351461 74.83302879 380.79490662 C74.83229652 382.82045383 74.85140076 384.84597783 74.87109375 386.87142944 C74.86414993 388.07982483 74.85720612 389.28822021 74.85005188 390.53323364 C74.85244023 391.58143847 74.85482859 392.62964329 74.85728931 393.70961189 C74.22686408 397.33255192 72.926903 398.95589121 70.36230469 401.55419922 C67.41096493 403.34491143 65.22739491 403.80535585 61.79512215 403.81146812 C60.41975168 403.82114146 60.41975168 403.82114146 59.01659596 403.83101022 C58.01291159 403.82791302 57.00922722 403.82481581 55.97512817 403.82162476 C54.37151564 403.82842143 54.37151564 403.82842143 52.73550689 403.8353554 C49.14117331 403.84804966 45.54699028 403.84637578 41.95263672 403.84472656 C39.38053186 403.85070864 36.8084288 403.85751345 34.23632812 403.86508179 C27.96766062 403.881697 21.69903073 403.88719156 15.43034305 403.88830654 C10.33513694 403.88925674 5.23994324 403.89336564 0.14474106 403.89970779 C-14.29967111 403.91732141 -28.74405356 403.92654645 -43.18847655 403.92504685 C-43.96723144 403.92496693 -44.74598632 403.92488702 -45.54833984 403.92480469 C-46.71789765 403.92468205 -46.71789765 403.92468205 -47.91108288 403.92455693 C-60.54888562 403.92374393 -73.1865692 403.94288471 -85.82433747 403.97108142 C-98.79930396 403.99980216 -111.77421233 404.01362217 -124.74921143 404.01189387 C-132.03427354 404.0112297 -139.31921074 404.01673375 -146.60424423 404.03824997 C-153.45459609 404.05835263 -160.30467979 404.05779635 -167.15504456 404.04321671 C-169.67134613 404.04112035 -172.18766398 404.04587837 -174.70393753 404.05793762 C-178.13512214 404.07331839 -181.56538743 404.06412843 -184.99655151 404.04867554 C-186.4953859 404.06410623 -186.4953859 404.06410623 -188.02449977 404.07984865 C-193.72511039 404.02298905 -197.17301135 403.46834392 -201.63769531 399.55419922 C-203.92170517 396.12818443 -203.89205086 394.89006759 -203.90512085 390.86122131 C-203.91365082 389.67436234 -203.92218079 388.48750336 -203.93096924 387.26467896 C-203.93006287 385.96037933 -203.92915649 384.65607971 -203.92822266 383.31225586 C-203.93420724 381.92555885 -203.94101263 380.53886519 -203.94857788 379.1521759 C-203.96627721 375.37838601 -203.97093561 371.60468681 -203.97220945 367.83085942 C-203.97363226 365.46527306 -203.97790488 363.09970962 -203.98320389 360.73412895 C-204.00173474 352.45709656 -204.00987288 344.18012861 -204.00830078 335.90307617 C-204.00710661 328.23194988 -204.0280573 320.56110828 -204.05978811 312.89005381 C-204.0861453 306.27825721 -204.09665965 299.66655223 -204.09538996 293.05470365 C-204.0948849 289.11814007 -204.10030738 285.18182797 -204.12174606 281.24531746 C-204.28985809 248.03397845 -199.81414411 221.31352997 -178.63769531 194.55419922 C-178.13496094 193.89548828 -177.63222656 193.23677734 -177.11425781 192.55810547 C-172.7141495 187.05161154 -167.18718091 182.84661902 -161.63769531 178.55419922 C-160.89003906 177.95607422 -160.14238281 177.35794922 -159.37207031 176.74169922 C-145.19677693 166.03588324 -128.85243343 160.90100688 -111.63769531 157.55419922 C-112.53230469 156.93673828 -113.42691406 156.31927734 -114.34863281 155.68310547 C-134.24560556 141.81100013 -148.63903292 125.74621227 -156.63769531 102.55419922 C-157.0540625 101.38888672 -157.47042969 100.22357422 -157.89941406 99.02294922 C-162.98785989 82.31142186 -163.12953709 61.18411368 -157.63769531 44.55419922 C-157.28578125 43.47912109 -156.93386719 42.40404297 -156.57128906 41.29638672 C-148.04248065 17.48327808 -131.31465034 -3.09539884 -108.52099609 -14.50537109 C-99.53677549 -18.70815904 -90.42382877 -21.71802298 -80.63769531 -23.44580078 C-79.37957031 -23.67267578 -78.12144531 -23.89955078 -76.82519531 -24.13330078 C-48.67711748 -26.90099881 -21.3218543 -18.82349749 0 0 Z " fill="#000000" transform="translate(320.6376953125,66.44580078125)"/>
</svg>
